<?xml version="1.0" encoding="UTF-8"?>
<svg width="503px" height="147px" viewBox="0 0 503 147" version="1.1" xmlns="http://www.w3.org/2000/svg" xmlns:xlink="http://www.w3.org/1999/xlink">
    <!-- Generator: Sketch 49.2 (51160) - http://www.bohemiancoding.com/sketch -->
    <title>pleca-sl</title>
    <desc>Created with Sketch.</desc>
    <defs></defs>
    <g id="Page-1" stroke="none" stroke-width="1" fill="none" fill-rule="evenodd">
        <g id="Artboard-Copy" transform="translate(-364.000000, -375.000000)">
            <g id="slider" transform="translate(364.000000, 102.000000)">
                <g id="pleca-sl" transform="translate(0.000000, 273.000000)">
                    <polygon id="bg" fill="#FFFFFF" points="0 6 489.696289 6 502.638672 51.2402344 477.214844 141 0 141"></polygon>
                    <g id="deco" transform="translate(461.000000, 0.000000)">
                        <polygon id="Rectangle-5" fill="#10140F" points="14.3818359 0 23.3818359 0 22 6 13 6"></polygon>
                        <polygon id="Rectangle-5-Copy" fill="#222223" transform="translate(5.190918, 144.000000) scale(-1, 1) translate(-5.190918, -144.000000) " points="1.38183594 141 10.3818359 141 9 147 0 147"></polygon>
                        <polygon id="Rectangle-5" fill="#2899A9" points="14 0 23 0 38.0410156 51 29.0410156 51"></polygon>
                        <polygon id="Rectangle-5" fill="#21717B" transform="translate(19.764404, 99.000000) scale(1, -1) translate(-19.764404, -99.000000) " points="1.48779297 51 10.487793 51 38.0410156 147 29.0410156 147"></polygon>
                    </g>
                </g>
            </g>
        </g>
    </g>
</svg>